<?xml version="1.0" encoding="utf-8"?>
<svg version="1.1" xmlns:xlink="http://www.w3.org/1999/xlink" width="32px" height="50px" xmlns="http://www.w3.org/2000/svg">
  <defs>
    <mask fill="white" id="clip3">
      <path d="M 32 25  C 32 25.537634408602173  31.80437580437581 26.002894954507838  31.413127413127427 26.395781637717107  L 8.494208494208465 49.410669975186124  C 8.102960102960083 49.803556658395394  7.639639639639654 50  7.104247104247065 50  C 6.56885456885459 50  6.105534105534161 49.803556658395394  5.714285714285666 49.410669975186124  L 0.5868725868725733 44.26178660049629  C 0.1956241956241911 43.868899917287024  0 43.4036393713813  0 42.86600496277913  C 0 42.32837055417701  0.1956241956241911 41.86311000827129  0.5868725868725733 41.47022332506202  L 16.988416988417043 25  L 12.506733123575486 20.499549779024733  L 0.5868725868725733 8.529776674937978  C 0.1956241956241911 8.136889991728708  0 7.671629445822986  0 7.133995037220842  C 0 6.596360628618697  0.1956241956241911 6.131100082712976  0.5868725868725733 5.738213399503735  L 5.714285714285666 0.5893300248139042  C 6.105534105534161 0.19644334160463472  6.56885456885459 0  7.104247104247065 0  C 7.639639639639654 0  8.102960102960083 0.19644334160463472  8.494208494208465 0.5893300248139042  L 31.413127413127427 23.604218362282893  C 31.80437580437581 23.997105045492162  32 24.462365591397827  32 25  Z " fill-rule="evenodd" />
    </mask>
  </defs>
  <g transform="matrix(1 0 0 1 -794 -237 )">
    <path d="M 32 25  C 32 25.537634408602173  31.80437580437581 26.002894954507838  31.413127413127427 26.395781637717107  L 8.494208494208465 49.410669975186124  C 8.102960102960083 49.803556658395394  7.639639639639654 50  7.104247104247065 50  C 6.56885456885459 50  6.105534105534161 49.803556658395394  5.714285714285666 49.410669975186124  L 0.5868725868725733 44.26178660049629  C 0.1956241956241911 43.868899917287024  0 43.4036393713813  0 42.86600496277913  C 0 42.32837055417701  0.1956241956241911 41.86311000827129  0.5868725868725733 41.47022332506202  L 16.988416988417043 25  L 12.506733123575486 20.499549779024733  L 0.5868725868725733 8.529776674937978  C 0.1956241956241911 8.136889991728708  0 7.671629445822986  0 7.133995037220842  C 0 6.596360628618697  0.1956241956241911 6.131100082712976  0.5868725868725733 5.738213399503735  L 5.714285714285666 0.5893300248139042  C 6.105534105534161 0.19644334160463472  6.56885456885459 0  7.104247104247065 0  C 7.639639639639654 0  8.102960102960083 0.19644334160463472  8.494208494208465 0.5893300248139042  L 31.413127413127427 23.604218362282893  C 31.80437580437581 23.997105045492162  32 24.462365591397827  32 25  Z " fill-rule="nonzero" fill="#ffffff" stroke="none" transform="matrix(1 0 0 1 794 237 )" />
    <path d="M 32 25  C 32 25.537634408602173  31.80437580437581 26.002894954507838  31.413127413127427 26.395781637717107  L 8.494208494208465 49.410669975186124  C 8.102960102960083 49.803556658395394  7.639639639639654 50  7.104247104247065 50  C 6.56885456885459 50  6.105534105534161 49.803556658395394  5.714285714285666 49.410669975186124  L 0.5868725868725733 44.26178660049629  C 0.1956241956241911 43.868899917287024  0 43.4036393713813  0 42.86600496277913  C 0 42.32837055417701  0.1956241956241911 41.86311000827129  0.5868725868725733 41.47022332506202  L 16.988416988417043 25  L 12.506733123575486 20.499549779024733  L 0.5868725868725733 8.529776674937978  C 0.1956241956241911 8.136889991728708  0 7.671629445822986  0 7.133995037220842  C 0 6.596360628618697  0.1956241956241911 6.131100082712976  0.5868725868725733 5.738213399503735  L 5.714285714285666 0.5893300248139042  C 6.105534105534161 0.19644334160463472  6.56885456885459 0  7.104247104247065 0  C 7.639639639639654 0  8.102960102960083 0.19644334160463472  8.494208494208465 0.5893300248139042  L 31.413127413127427 23.604218362282893  C 31.80437580437581 23.997105045492162  32 24.462365591397827  32 25  Z " stroke-width="2" stroke="#555555" fill="none" transform="matrix(1 0 0 1 794 237 )" mask="url(#clip3)" />
  </g>
</svg>