<?xml version="1.0" encoding="utf-8"?>
<svg version="1.1" xmlns:xlink="http://www.w3.org/1999/xlink" width="300px" height="170px" xmlns="http://www.w3.org/2000/svg">
  <g transform="matrix(1 0 0 1 -352 -257 )">
    <path d="M 352 257  L 652 257  L 652 427  L 352 427  L 352 257  " fill-rule="nonzero" fill="#cccccc" stroke="none" />
    <path d="M 364 269  L 640 269  L 640 415  L 364 415  L 364 269  " fill-rule="nonzero" fill="#ffffff" stroke="none" />
    <path d="M 520.75 308  C 513.61 308  508 302.39  508 295.25  C 508 288.11  513.61 282.5  520.75 282.5  C 527.89 282.5  533.5 288.11  533.5 295.25  C 533.5 302.39  527.89 308  520.75 308  " fill-rule="nonzero" fill="#cccccc" stroke="none" />
    <path d="M 369 411  L 369 335.65  L 435.75 301.4  L 529.2 364.42  L 582.6 321.95  L 636 364.42  L 636 411  L 369 411  " fill-rule="nonzero" fill="#169bd5" stroke="none" />
  </g>
</svg>