<?xml version="1.0" encoding="utf-8"?>
<svg version="1.1" xmlns:xlink="http://www.w3.org/1999/xlink" width="32px" height="50px" xmlns="http://www.w3.org/2000/svg">
  <defs>
    <mask fill="white" id="clip4">
      <path d="M 32 7.133995037220842  C 32 7.671629445822992  31.804375804375805 8.136889991728696  31.413127413127413 8.529776674937967  L 15.011583011583012 25  L 31.413127413127413 41.47022332506204  C 31.804375804375805 41.8631100082713  32 42.328370554177006  32 42.86600496277916  C 32 43.4036393713813  31.804375804375805 43.86889991728701  31.413127413127413 44.26178660049628  L 26.285714285714285 49.4106699751861  C 25.894465894465895 49.80355665839537  25.43114543114543 50  24.895752895752896 50  C 24.360360360360364 50  23.8970398970399 49.80355665839537  23.505791505791507 49.4106699751861  L 0.5868725868725869 26.39578163771712  C 0.19562419562419592 26.002894954507855  0 25.537634408602152  0 25  C 0 24.462365591397848  0.19562419562419592 23.99710504549214  0.5868725868725869 23.60421836228288  L 23.505791505791507 0.5893300248138944  C 23.8970398970399 0.19644334160462962  24.360360360360364 0  24.895752895752896 0  C 25.43114543114543 0  25.894465894465895 0.19644334160462962  26.285714285714285 0.5893300248138944  L 31.413127413127413 5.738213399503723  C 31.804375804375805 6.131100082712981  32 6.596360628618686  32 7.133995037220842  Z " fill-rule="evenodd" />
    </mask>
  </defs>
  <g transform="matrix(1 0 0 1 -207 -247 )">
    <path d="M 32 7.133995037220842  C 32 7.671629445822992  31.804375804375805 8.136889991728696  31.413127413127413 8.529776674937967  L 15.011583011583012 25  L 31.413127413127413 41.47022332506204  C 31.804375804375805 41.8631100082713  32 42.328370554177006  32 42.86600496277916  C 32 43.4036393713813  31.804375804375805 43.86889991728701  31.413127413127413 44.26178660049628  L 26.285714285714285 49.4106699751861  C 25.894465894465895 49.80355665839537  25.43114543114543 50  24.895752895752896 50  C 24.360360360360364 50  23.8970398970399 49.80355665839537  23.505791505791507 49.4106699751861  L 0.5868725868725869 26.39578163771712  C 0.19562419562419592 26.002894954507855  0 25.537634408602152  0 25  C 0 24.462365591397848  0.19562419562419592 23.99710504549214  0.5868725868725869 23.60421836228288  L 23.505791505791507 0.5893300248138944  C 23.8970398970399 0.19644334160462962  24.360360360360364 0  24.895752895752896 0  C 25.43114543114543 0  25.894465894465895 0.19644334160462962  26.285714285714285 0.5893300248138944  L 31.413127413127413 5.738213399503723  C 31.804375804375805 6.131100082712981  32 6.596360628618686  32 7.133995037220842  Z " fill-rule="nonzero" fill="#ffffff" stroke="none" transform="matrix(1 0 0 1 207 247 )" />
    <path d="M 32 7.133995037220842  C 32 7.671629445822992  31.804375804375805 8.136889991728696  31.413127413127413 8.529776674937967  L 15.011583011583012 25  L 31.413127413127413 41.47022332506204  C 31.804375804375805 41.8631100082713  32 42.328370554177006  32 42.86600496277916  C 32 43.4036393713813  31.804375804375805 43.86889991728701  31.413127413127413 44.26178660049628  L 26.285714285714285 49.4106699751861  C 25.894465894465895 49.80355665839537  25.43114543114543 50  24.895752895752896 50  C 24.360360360360364 50  23.8970398970399 49.80355665839537  23.505791505791507 49.4106699751861  L 0.5868725868725869 26.39578163771712  C 0.19562419562419592 26.002894954507855  0 25.537634408602152  0 25  C 0 24.462365591397848  0.19562419562419592 23.99710504549214  0.5868725868725869 23.60421836228288  L 23.505791505791507 0.5893300248138944  C 23.8970398970399 0.19644334160462962  24.360360360360364 0  24.895752895752896 0  C 25.43114543114543 0  25.894465894465895 0.19644334160462962  26.285714285714285 0.5893300248138944  L 31.413127413127413 5.738213399503723  C 31.804375804375805 6.131100082712981  32 6.596360628618686  32 7.133995037220842  Z " stroke-width="2" stroke="#555555" fill="none" transform="matrix(1 0 0 1 207 247 )" mask="url(#clip4)" />
  </g>
</svg>