<?xml version="1.0" encoding="utf-8"?>
<svg version="1.1" xmlns:xlink="http://www.w3.org/1999/xlink" width="32px" height="50px" xmlns="http://www.w3.org/2000/svg">
  <defs>
    <mask fill="white" id="clip5">
      <path d="M 32 25  C 32 25.537634408602152  31.804375804375805 26.002894954507855  31.413127413127413 26.39578163771712  L 8.494208494208495 49.4106699751861  C 8.102960102960104 49.80355665839537  7.639639639639641 50  7.104247104247104 50  C 6.56885456885457 50  6.105534105534106 49.80355665839537  5.714285714285714 49.4106699751861  L 0.5868725868725869 44.26178660049628  C 0.19562419562419592 43.86889991728701  0 43.4036393713813  0 42.86600496277916  C 0 42.328370554177006  0.19562419562419592 41.8631100082713  0.5868725868725869 41.47022332506204  L 16.98841698841699 25  L 0.5868725868725869 8.529776674937967  C 0.19562419562419592 8.136889991728696  0 7.671629445822992  0 7.133995037220842  C 0 6.596360628618686  0.19562419562419592 6.131100082712981  0.5868725868725869 5.738213399503723  L 5.714285714285714 0.5893300248138944  C 6.105534105534106 0.19644334160462962  6.56885456885457 0  7.104247104247104 0  C 7.639639639639641 0  8.102960102960104 0.19644334160462962  8.494208494208495 0.5893300248138944  L 31.413127413127413 23.60421836228288  C 31.804375804375805 23.99710504549214  32 24.462365591397848  32 25  Z " fill-rule="evenodd" />
    </mask>
  </defs>
  <g transform="matrix(1 0 0 1 -803 -247 )">
    <path d="M 32 25  C 32 25.537634408602152  31.804375804375805 26.002894954507855  31.413127413127413 26.39578163771712  L 8.494208494208495 49.4106699751861  C 8.102960102960104 49.80355665839537  7.639639639639641 50  7.104247104247104 50  C 6.56885456885457 50  6.105534105534106 49.80355665839537  5.714285714285714 49.4106699751861  L 0.5868725868725869 44.26178660049628  C 0.19562419562419592 43.86889991728701  0 43.4036393713813  0 42.86600496277916  C 0 42.328370554177006  0.19562419562419592 41.8631100082713  0.5868725868725869 41.47022332506204  L 16.98841698841699 25  L 0.5868725868725869 8.529776674937967  C 0.19562419562419592 8.136889991728696  0 7.671629445822992  0 7.133995037220842  C 0 6.596360628618686  0.19562419562419592 6.131100082712981  0.5868725868725869 5.738213399503723  L 5.714285714285714 0.5893300248138944  C 6.105534105534106 0.19644334160462962  6.56885456885457 0  7.104247104247104 0  C 7.639639639639641 0  8.102960102960104 0.19644334160462962  8.494208494208495 0.5893300248138944  L 31.413127413127413 23.60421836228288  C 31.804375804375805 23.99710504549214  32 24.462365591397848  32 25  Z " fill-rule="nonzero" fill="#ffffff" stroke="none" transform="matrix(1 0 0 1 803 247 )" />
    <path d="M 32 25  C 32 25.537634408602152  31.804375804375805 26.002894954507855  31.413127413127413 26.39578163771712  L 8.494208494208495 49.4106699751861  C 8.102960102960104 49.80355665839537  7.639639639639641 50  7.104247104247104 50  C 6.56885456885457 50  6.105534105534106 49.80355665839537  5.714285714285714 49.4106699751861  L 0.5868725868725869 44.26178660049628  C 0.19562419562419592 43.86889991728701  0 43.4036393713813  0 42.86600496277916  C 0 42.328370554177006  0.19562419562419592 41.8631100082713  0.5868725868725869 41.47022332506204  L 16.98841698841699 25  L 0.5868725868725869 8.529776674937967  C 0.19562419562419592 8.136889991728696  0 7.671629445822992  0 7.133995037220842  C 0 6.596360628618686  0.19562419562419592 6.131100082712981  0.5868725868725869 5.738213399503723  L 5.714285714285714 0.5893300248138944  C 6.105534105534106 0.19644334160462962  6.56885456885457 0  7.104247104247104 0  C 7.639639639639641 0  8.102960102960104 0.19644334160462962  8.494208494208495 0.5893300248138944  L 31.413127413127413 23.60421836228288  C 31.804375804375805 23.99710504549214  32 24.462365591397848  32 25  Z " stroke-width="2" stroke="#555555" fill="none" transform="matrix(1 0 0 1 803 247 )" mask="url(#clip5)" />
  </g>
</svg>